<svg width="24" height="24" viewBox="0 0 24 24" fill="none" xmlns="http://www.w3.org/2000/svg" aria-hidden="true">
  <g stroke="currentColor" stroke-width="1.8" stroke-linecap="round" stroke-linejoin="round">
    <path d="M12 15.5A3.5 3.5 0 1 0 12 8a3.5 3.5 0 0 0 0 7.5z"/>
        <path d="M19.4 15a1.7 1.7 0 0 0 .3 1.9l.1.1-2 3.4-.2-.1a1.8 1.8 0 0 0-2.1.1 1.8 1.8 0 0 0-.8 1.8H9.3a1.8 1.8 0 0 0-.8-1.8 1.8 1.8 0 0 0-2.1-.1l-.2.1-2-3.4.1-.1A1.7 1.7 0 0 0 4.6 15a1.8 1.8 0 0 0-1.6-1.1V10a1.8 1.8 0 0 0 1.6-1.1A1.7 1.7 0 0 0 4.3 7l-.1-.1 2-3.4.2.1a1.8 1.8 0 0 0 2.1-.1 1.8 1.8 0 0 0 .8-1.8h5.4a1.8 1.8 0 0 0 .8 1.8 1.8 1.8 0 0 0 2.1.1l.2-.1 2 3.4-.1.1a1.7 1.7 0 0 0-.3 1.9A1.8 1.8 0 0 0 21 10v3.9A1.8 1.8 0 0 0 19.4 15z"/>
  </g>
</svg>
